<?xml version="1.0" encoding="UTF-8"?>
<svg version="1.1" viewBox="0 0 386 354" xmlns="http://www.w3.org/2000/svg">
<path d="m185.47 338.74c-5.5621-3.427-17.324-10.58-26.137-15.895l-16.024-9.6639 14.128-26.956c7.7706-14.826 14.413-26.95 14.76-26.942 0.58603 0.013 50.557 62.63 54.009 67.677 1.3782 2.0149 0.0789 3.1402-11.812 10.231-7.3484 4.3818-14.587 7.9249-16.086 7.8735-1.4988-0.0514-7.2759-2.8974-12.838-6.3244zm17.765-48.983-28.707-36.011 32.463-61.425c17.855-33.784 32.858-61.862 33.341-62.397 0.71915-0.79723 70.578 102.05 71.979 105.97 0.58356 1.6322-29.658 58.938-32.387 61.37-2.3897 2.1298-42.653 26.405-45.936 27.695-1.5366 0.60393-9.1985-8.1674-30.753-35.206zm-88.729 6.2726-22.928-13.841 5.3336-11.824c22.079-48.946 30.536-66.839 31.347-66.328 0.51593 0.32531 9.7791 11.758 20.585 25.405l19.647 24.814-4.2582 8.0038c-2.342 4.4021-8.9626 16.942-14.712 27.867-5.7499 10.925-10.821 19.836-11.27 19.803-0.44876-0.033-11.133-6.2882-23.744-13.901zm180.89-15.489c14.132-27.015 20.288-38.277 20.895-38.227 0.3557 0.0288 4.1657 5.403 8.4666 11.942l7.8199 11.89-16.037 9.6294c-8.8202 5.2962-18.549 11.14-21.619 12.987l-5.5826 3.3574zm-224.33-10.677-14.537-8.8222-0.32658-74.135c-0.18694-42.434 0.14651-73.602 0.77976-72.887 0.6085 0.68654 15.479 19.418 33.046 41.626 38.173 48.258 33.977 43.393 35.395 41.029 1.5554-2.593 4.1805 0.0473 3.0541 3.0717-0.67972 1.8251-1.1577 1.9187-2.7752 0.5434-1.1851-1.0075-2.1271-1.1487-2.3937-0.35885-2.0307 6.0169-35.611 78.077-36.522 78.372-0.65063 0.2112-7.7248-3.586-15.72-8.4382zm257.14-19.462c-4.6848-6.9846-8.6954-12.929-8.9126-13.211-0.21713-0.28118-1.2112 0.18689-2.209 1.0401-2.1617 1.8485-3.673 0.0252-2.5278-3.0496 0.56698-1.5224 1.2232-1.7287 2.3725-0.74601 1.9372 1.6566 2.1943 1.2626 14.638-22.429l9.392-17.881 0.33807 32.699c0.32787 31.714-0.11971 36.277-3.5589 36.277-0.55827 0-4.848-5.7147-9.5328-12.699zm-157.9 4.8844c-0.48577-1.577-0.31434-3.4533 0.38092-4.1697 0.84273-0.86831 1.5585-0.34675 2.1473 1.5647 0.48575 1.577 0.31435 3.4534-0.38091 4.1697-0.84275 0.86832-1.5585 0.34674-2.1473-1.5647zm-19.594-31.374c-10.777-13.612-19.552-25.749-19.501-26.97 0.11277-2.708 61.524-138.31 62.645-138.32 0.43749-0.0063 9.5391 13.249 20.226 29.454 23.969 36.348 23.391 35.589 25.19 33.055 1.0444-1.4722 1.5441-1.5525 2.0272-0.32563 0.35264 0.89547 1.0998 1.6281 1.6604 1.6281 0.56054 0 9.1432-15.386 19.073-34.191 9.9294-18.805 18.196-34.389 18.37-34.631 0.17419-0.24227 13.872 7.7073 30.439 17.666l30.122 18.106 0.33219 46.671 0.3322 46.671-12.128 22.931c-6.6705 12.612-12.572 23.407-13.115 23.989-0.5428 0.58178-17.126-23.034-36.851-52.48-30.284-45.207-36.096-53.211-37.354-51.439-1.3552 1.9096-1.6113 1.8852-2.8425-0.27157-0.98454-1.7246-1.6177-1.9407-2.3244-0.79341-0.53417 0.86727-15.477 29.128-33.206 62.801-17.729 33.673-32.519 61.219-32.867 61.212-0.34763-6e-3 -9.4493-11.149-20.226-24.761zm-59.451-74.874-34.725-43.677v-15.97l55.621-33.549c30.592-18.452 56.196-33.584 56.898-33.626 1.1279-0.06794 17.254 23.014 20.005 28.632 0.75949 1.5516-7.7116 21.514-30.154 71.061-17.166 37.897-31.595 69.331-32.065 69.854-0.47011 0.52293-16.481-18.704-35.58-42.726zm126.66-64.359-21.578-32.543 8.7382-19.231c4.806-10.577 9.1865-19.132 9.7344-19.012 0.85562 0.18844 59.677 35.301 60.826 36.309 0.62187 0.54565-34.418 66.957-35.345 66.991-0.43864 0.016-10.508-14.615-22.376-32.514zm-25.955-30.635c-0.92623-2.487 0.37126-6.0639 1.8565-5.1182 0.62241 0.39635 1.1317 1.8237 1.1317 3.1719 0 3.1509-2.0438 4.4821-2.9882 1.9463zm-8.2306-20.682c-4.9539-7.4987-9.0071-13.936-9.0071-14.306 0-1.3087 21.763-13.848 24.035-13.848 2.6755 0 10.077 4.082 10.089 5.564 6e-3 0.81668-14.891 34.54-15.834 35.844-0.15106 0.2088-4.3278-5.7557-9.2817-13.254z" fill="#333741" opacity=".95974" stroke-width="1.2832"/>
</svg>
