<?xml version="1.0" encoding="UTF-8"?>
<svg version="1.1" viewBox="0 0 4000 4000" xmlns="http://www.w3.org/2000/svg">
<defs>
<filter id="g" x="-.15266" y="-.58317" width="1.3053" height="2.1663" color-interpolation-filters="sRGB">
<feGaussianBlur stdDeviation="14.971275"/>
</filter>
<filter id="e" x="-.045083" y="-.17224" width="1.0902" height="1.3444" color-interpolation-filters="sRGB">
<feGaussianBlur stdDeviation="0.98430464"/>
</filter>
<filter id="c" x="-.34149" y="-.11746" width="1.6828" height="1.2329" color-interpolation-filters="sRGB">
<feGaussianBlur stdDeviation="30.011755"/>
</filter>
<filter id="f" x="-.15266" y="-.58317" width="1.3053" height="2.1663" color-interpolation-filters="sRGB">
<feGaussianBlur stdDeviation="14.971275"/>
</filter>
<filter id="d" x="-.045083" y="-.17224" width="1.0902" height="1.3444" color-interpolation-filters="sRGB">
<feGaussianBlur stdDeviation="0.98430464"/>
</filter>
<filter id="a" x="-1.1463" y="-1.1038" width="3.2926" height="3.2066" color-interpolation-filters="sRGB">
<feGaussianBlur stdDeviation="210.02532"/>
</filter>
<filter id="b" x="-.34149" y="-.11746" width="1.6828" height="1.2329" color-interpolation-filters="sRGB">
<feGaussianBlur stdDeviation="30.011755"/>
</filter>
</defs>
<g transform="translate(52.468 253.92)">
<rect x="3400" y="957.2" width="10085" height="0" fill="#aee2f6" fill-opacity=".99608" stroke="#ccc" stroke-linecap="round" stroke-opacity=".99608" stroke-width="23.35"/>
<g transform="translate(431.71 -101.26)">
<g transform="translate(-20.895 -1147.1)">
<g transform="translate(79.815 -416.81)">
<g stroke-linecap="round">
<path d="m2091.1 3193.8s839.31 726.13 660.22 1087.6c-9.2683 11.975-157.03 293.35-502.84-360.53-7.5127-5.0926-157.37-727.1-157.37-727.1z" fill="#ccc" fill-opacity=".99608" stroke="#cbcccc" stroke-width="23.41"/>
<path d="m2165.7 3307.3s718.07 632.28 531.81 897.37c-9.2084 8.5035-161.8 214.14-434.97-321.11-6.5174-4.5699-96.839-576.26-96.839-576.26z" fill="#fff" stroke="#fff" stroke-width="19.737"/>
</g>
<g transform="matrix(-1 0 0 1 2848.5 -.00037149)" stroke-linecap="round">
<path d="m2091.1 3193.8s839.31 726.13 660.22 1087.6c-9.2683 11.975-157.03 293.35-502.84-360.53-7.5127-5.0926-157.37-727.1-157.37-727.1z" fill="#ccc" fill-opacity=".99608" stroke="#cbcccc" stroke-width="23.41"/>
<path d="m2165.7 3307.3s718.07 632.28 531.81 897.37c-9.2084 8.5035-161.8 214.14-434.97-321.11-6.5174-4.5699-96.839-576.26-96.839-576.26z" fill="#fff" stroke="#fff" stroke-width="19.737"/>
</g>
<g transform="matrix(1.0214 0 0 .97154 -95.28 1292.3)" fill-opacity=".99608">
<path class="UnoptimicedTransforms" transform="translate(27.255 -82.399)" d="m791.39 2061.9c-449.13 483.61 6.2185 1018.7 10.18 1019.3 237.08 396.08 656.69 391.57 656.69 391.57s419.61 4.5155 656.69-391.57c3.9612-0.5881 459.31-535.67 10.18-1019.3 1.1939 3.4138-666.87 126.63-666.87 126.63s-668.06-123.22-666.87-126.63z" fill="#ccc" stroke="#ccc" stroke-opacity=".99608" stroke-width="17.31"/>
<path class="UnoptimicedTransforms" transform="matrix(.95577 0 0 .93933 89.689 23.107)" d="m791.39 2061.9c-449.13 483.61 6.2185 1018.7 10.18 1019.3 237.08 396.08 656.69 391.57 656.69 391.57s419.61 4.5155 656.69-391.57c3.9612-0.5881 459.31-535.67 10.18-1019.3 1.1939 3.4138-666.87 126.63-666.87 126.63s-668.06-123.22-666.87-126.63z" fill="#fff" stroke="#fff" stroke-width="15.91"/>
</g>
</g>
<g transform="translate(1691.1 -960.07)">
<g transform="translate(-1783.9 532.3)">
<path class="UnoptimicedTransforms" transform="translate(135.22 1213.8)" d="m1458.2 741.8h-99.008s-116.81 1.2514-146.52 56.428c-0.3655 0.93864-48.74 46.636-38.47 122.6 1.8376 2.0858 284.21 0 284.21 0s282.37 2.0858 284.21 0c10.269-75.969-38.105-121.67-38.47-122.6-29.706-55.176-146.52-56.428-146.52-56.428h-99.008" fill="#cbcccc" stroke="#cbcccc" stroke-width="15.91"/>
<path class="UnoptimicedTransforms" transform="translate(133.23 1238.6)" d="m1458.2 741.8h-99.008s-116.81 1.2514-146.52 56.428c-0.3655 0.93864-48.74 46.636-38.47 122.6 1.8376 2.0858 284.21 0 284.21 0s282.37 2.0858 284.21 0c10.269-75.969-38.105-121.67-38.47-122.6-29.706-55.176-146.52-56.428-146.52-56.428h-99.008" fill="#fff" stroke="#fff" stroke-width="15.91"/>
<g transform="matrix(-1 0 0 1 5150 1260.1)" stroke-width="1.9">
<path d="m2775.9 1150.2v-623.58s-196.68 197.98-205 322.63c0.097 3.0558-8.7922 310.17-8.7922 310.17z" fill="#cf00f9" fill-opacity=".99608" filter="url(#c)" stroke="#cf00f9" stroke-opacity=".99608"/>
<g transform="translate(4.5945 -24.044)" fill="#05f56b" stroke="#05f56b">
<path d="m2767.4 1182.4v-623.58s-196.68 197.98-205 322.63c0.097 3.0558-8.7922 310.17-8.7922 310.17z" fill="#cf00f9" fill-opacity=".99608" stroke="#cf00f9" stroke-opacity=".99608" stroke-width="1.9"/>
</g>
</g>
<g transform="translate(-1923.3 1260.1)" stroke="#05f56b" stroke-width="1.9">
<path d="m2775.9 1150.2v-623.58s-196.68 197.98-205 322.63c0.097 3.0558-8.7922 310.17-8.7922 310.17z" fill="#cf00f9" fill-opacity=".99608" filter="url(#b)"/>
<g transform="translate(4.5945 -24.044)" fill="#05f56b">
<path d="m2767.4 1182.4v-623.58s-196.68 197.98-205 322.63c0.097 3.0558-8.7922 310.17-8.7922 310.17z" fill="#cf00f9" fill-opacity=".99608" stroke="#cf00f9" stroke-opacity=".99608" stroke-width="1.9"/>
</g>
</g>
<g transform="matrix(.96892 0 0 .98064 53.427 151.12)">
<g transform="translate(68.575 1132.9)">
<g transform="translate(-165.17 8.0802)" stroke-width="15.91">
<path d="m2537.6 1245.5 88.063 576.9s198 92.196 215.83-106.76c-1.4349 0.4913-16.131-408.57-70.13-429.87-9.4206-4.1397-88.065-65.432-233.76-40.267z" fill="#ccc" fill-opacity=".99608" stroke="#ccc"/>
<path d="m2530.4 1165.5 88.063 576.9s198 92.196 215.83-106.76c-1.4349 0.4913-16.131-408.57-70.13-429.87-9.4206-4.1397-88.065-65.432-233.76-40.267z" fill="#fff" stroke="#fff"/>
</g>
<g transform="matrix(-1 0 0 1 3231.4 10.658)" stroke-width="15.91">
<path d="m2537.6 1245.5 88.063 576.9s198 92.196 215.83-106.76c-1.4349 0.4913-16.131-408.57-70.13-429.87-9.4206-4.1397-88.065-65.432-233.76-40.267z" fill="#ccc" fill-opacity=".99608" stroke="#ccc"/>
<path d="m2530.4 1165.5 88.063 576.9s198 92.196 215.83-106.76c-1.4349 0.4913-16.131-408.57-70.13-429.87-9.4206-4.1397-88.065-65.432-233.76-40.267z" fill="#fff" stroke="#fff"/>
</g>
<path class="UnoptimicedTransforms" transform="translate(74.304 -12.59)" d="m1090.7 920.28s-538.74 53.864-542.75 539.08c-0.42538 15.195-32.815 281.8 7.1172 371.17-0.68775 2.0179 121.63 350.65 904.74 361.26 783.11-10.61 905.43-359.24 904.74-361.26 39.932-89.364 7.5425-355.97 7.1172-371.17-4.0106-485.21-542.75-539.08-542.75-539.08h-369.11z" fill="#ccc" fill-opacity=".99608" stroke="#ccc" stroke-width="61.11"/>
<path class="UnoptimicedTransforms" transform="matrix(.99649 0 0 .93292 82.905 21.563)" d="m1797.8 911.65-353.49 8.623h-353.6s-538.74 53.864-542.75 539.08c-0.42538 15.195-32.815 281.8 7.1172 371.17-0.68775 2.0179 121.63 350.65 904.74 361.26 782.62-29.704 896.4-381.21 895.66-383.21 37.741-90.312-1.1418-356.05-1.9375-371.23-15.842-484.97-555.74-525.68-555.74-525.68z" fill="#fff" stroke="#fff" stroke-width="15.91"/>
</g>
<path class="UnoptimicedTransforms" transform="translate(97.14 1083.5)" d="m1460.3 1074.5s-693.81 8.4344-708.31 553.64c-0.84763 14.911 113.62 440.45 708.31 130.78 594.69 309.67 709.15-115.87 708.3-130.78-14.498-545.21-708.3-553.64-708.3-553.64z" fill-opacity=".99608" stroke="#000" stroke-linecap="round" stroke-width="23.41"/>
</g>
<g transform="translate(679.21 1213.3)" fill-opacity="0" stroke="#cf00f9" stroke-linecap="round" stroke-opacity=".99608" stroke-width="23.41">
<path d="m1028.4 1484.2s185.28-183.8 312.03 0" filter="url(#f)"/>
<path d="m1028.2 1487.5s185.28-183.8 312.03 0" filter="url(#d)" style="mix-blend-mode:normal"/>
</g>
<g transform="translate(79.925 1213.3)" fill-opacity="0" stroke="#cf00f9" stroke-linecap="round" stroke-opacity=".99608" stroke-width="23.41">
<path d="m1028.4 1484.2s185.28-183.8 312.03 0" filter="url(#g)"/>
<path d="m1028.2 1487.5s185.28-183.8 312.03 0" filter="url(#e)" style="mix-blend-mode:normal"/>
</g>
</g>
</g>
</g>
<g transform="translate(-37.5 35.938)">
<ellipse cx="1533.4" cy="3336.9" rx="553.88" ry="103.7" fill="#a1a4a5" stroke="#a1a4a5" stroke-linecap="round" stroke-width="58.72"/>
<path class="UnoptimicedTransforms" transform="translate(.16551 -479.03)" d="m1155.3 2439.4s-393.16-4.4768-87.842 494.63c2.2097 11.184 196.9 262.73 437.6 247.76 240.7 14.968 435.39-236.58 437.6-247.76 305.31-499.1-87.842-494.63-87.842-494.63h-349.76z" fill="#010101" stroke="#010101" stroke-width="43.71"/>
<g transform="matrix(1.3041 0 0 1.0027 1212.6 2017)" filter="url(#a)" stroke-linecap="round">
<path class="UnoptimicedTransforms" d="m49.665 422.29s59.298 212.96 206.2-83.933m206.2 83.933s-59.298 212.96-206.2-83.933" fill="none" stroke="#05f56b" stroke-width="34.41"/>
<path class="UnoptimicedTransforms" transform="matrix(.99194 0 0 .82734 -.80342 16.074)" d="m257.22 96.533s-69.653-10.103 0 192.16c69.653-202.26 0-192.16 0-192.16z" fill="none" stroke="#05f56b" stroke-width="34.41"/>
<path d="m96.324 64.794s-86.527 79.889 89.556 86.03" fill="none" stroke="#05f56b" stroke-width="34.41"/>
<path d="m416.07 64.794s86.527 79.889-89.556 86.03" fill="none" stroke="#05f56b" stroke-width="34.41"/>
<path d="m30.127 326.68s-15.762 91.679 155.86 44.91" fill="none" stroke="#05f56b" stroke-width="34.41"/>
<path d="m479.07 326.68s15.762 91.679-155.86 44.91" fill="none" stroke="#05f56b" stroke-width="34.41"/>
<path d="m30.689 236.15s-22.405 103.35 175.11 56.79" fill="none" stroke="#05f56b" stroke-width="34.41"/>
<path d="m386.46 250.76s45.533 246.97-355.86 135.71" fill="#cf00f9" fill-opacity=".99608" stroke="#cf00f9" stroke-opacity=".99608" stroke-width="75.832"/>
<path d="m48.301 156.37s-42.857 86.437 141.02 65.784" fill="none" stroke="#05f56b" stroke-width="34.41"/>
<path class="UnoptimicedTransforms" d="m200.87 89.13s-166.59-88.475 7.9662-59.247c-1.3969 2.0991 39.105 7.6847 50.721 5.9343 11.616 1.7505 52.118-3.8352 50.721-5.9343 174.56-29.227 7.9662 59.247 7.9662 59.247" fill="#cf00f9" fill-opacity=".99608" stroke="#cf00f9" stroke-opacity=".99608" stroke-width="34.41"/>
</g>
</g>
<g transform="matrix(7.668 0 0 7.8337 933.68 1859.9)" fill="#cf00f9" fill-opacity=".99608" stroke="#cf00f9" stroke-opacity=".99608">
<path d="m91.307 83.334c-0.4841 0.57424-1.3978 0.43309-2.1322 0.51569-1.1445 0.12875-2.3162 0.46551-3.3374 0.94912-4.0446 1.9152-5.7477 5.465-5.7477 9.4254 0 0.76961-0.3134 2.2443 0.1093 2.9228 0.29323 0.47071 1.0596 0.34422 1.5594 0.34422h27.441c0.55039 0 1.4196 0.15171 1.6785-0.42254 0.32652-0.72386 0.0829-1.9016 0.0829-2.677 0-3.8262-1.7313-7.651-5.655-9.5092-1.1259-0.53311-2.3616-0.84742-3.6155-1.0101-0.72395-0.0939-1.5553 0.03578-2.0395-0.53848 2.0487-0.0053 4.1958-0.75093 6.0259-1.5263 0.5832-0.24713 1.4994-0.49642 1.878-0.99562 0.28265-0.37277 0.16149-0.98631 0.16149-1.4153v-3.4346c0-3.4214 0.48011-7.1881-1.1411-10.388-0.69761-1.3769-1.888-2.1837-2.7856-3.3864-0.19625-0.26292-0.0358-0.60886 0.0471-0.88593 0.22529-0.75271 0.42756-1.5114 0.66184-2.2618 0.18707-0.59907 0.17419-1.2047-0.67584-1.2529-4.2581-0.24114-8.6186-0.0037-12.886-0.0037h-3.152c-0.40113 0-0.94559-0.07877-1.2576 0.20387-0.35284 0.31949-0.13684 0.76712-0.02943 1.1365 0.19143 0.6589 1.0819 2.3888 0.73757 3.0082-0.19913 0.35814-0.71384 0.63145-1.0106 0.92898-0.66831 0.66986-1.2666 1.4397-1.6819 2.2618-1.703 3.3711-1.2079 7.1971-1.2079 10.806v3.4346c0 0.3758-0.12951 0.99536 0.14861 1.3077 0.42302 0.47473 1.386 0.73275 1.9836 0.98003 1.8509 0.76576 3.7987 1.3364 5.8405 1.482m11.866-24.377-1.576 5.2776c-2.4637-0.60767-4.8196-1.2145-7.4164-0.991-1.6829 0.14481-3.1961 0.6433-4.8207 0.99102l-1.576-5.2776h15.389m-8.3435 2.5131c0.0042 0.4629 0.33059 1.5082 1.0722 0.943 0.2809-0.21405 0.13062-0.58832 0.37425-0.80868 0.22194-0.20066 0.59109-0.09504 0.80227-0.32849 0.59435-0.6571-0.44674-0.89354-0.95087-0.89485-0.0042-0.48403-0.43451-1.5657-1.1364-0.86673-0.20849 0.20764-0.09278 0.53499-0.31009 0.73247-0.2198 0.19974-0.58961 0.11121-0.80237 0.33812-0.62084 0.66212 0.44981 0.88479 0.95098 0.88515m-7.0456 1.9267c0.1969 0.5564 0.30806 1.9021 1.0237 2.108 0.37324 0.10739 0.85882-0.15397 1.2012-0.26924 0.80886-0.27226 1.6532-0.50078 2.5031-0.64411 2.142-0.36144 4.267-0.32759 6.3967 0.09742 0.80264 0.16025 2.4807 1.0347 3.2407 0.81593 0.71569-0.20591 0.82685-1.5516 1.0238-2.108 1.6966 1.0799 2.6044 3.1609 2.9846 4.9425 0.0741 0.3474 0.43989 1.5853 0.10772 1.8406-0.40512 0.31154-1.871-0.02137-2.3507-0.11694-1.5206-0.30308-2.7039-1.0855-3.7081-2.1425-0.37434-0.39398-1.0307-1.5962-1.6692-1.6031-0.4206-0.0045-0.82322 0.44189-1.1121 0.66832-0.61131 0.47925-1.3207 0.9121-2.0395 1.2483-2.4989 1.1684-5.1983 1.6362-7.9727 1.8788-0.5363 0.04691-2.3102 0.38258-2.7216 0.06718-0.23389-0.17927-0.05698-0.84315-0.02019-1.0867 0.16056-1.0628 0.43154-2.1317 0.95774-3.0995 0.53186-0.97819 1.148-1.956 2.1549-2.5969m10.754 4.2723c0.79561 1.0001 1.6755 2.0639 2.8739 2.6911 0.42525 0.22258 1.8706 0.51661 2.01 0.93019 0.2085 0.61823 0.0295 1.5132 0.0295 2.1589 0 2.134-0.47056 4.0464-2.0663 5.6963-2.7673 2.8613-7.9843 3.0833-11.098 0.5719-2.8402-2.2909-2.6885-5.2998-2.6885-8.4463 2.6762-0.3056 5.3281-0.72998 7.7873-1.786 1.1438-0.49123 2.0692-1.2533 3.152-1.8161m7.88 3.6859v6.3666c0 0.60247 0.26839 1.8814-0.0953 2.3967-0.26821 0.3799-1.1311 0.6215-1.5734 0.79817-1.5592 0.623-3.3771 1.2129-5.0988 1.245 0.0253-0.69003 0.75398-0.85304 1.2979-1.2276 0.95496-0.65777 1.7668-1.4449 2.3914-2.3746 1.5198-2.2621 1.3168-4.7493 1.3168-7.2881l1.7614 0.08377m-20.117 0c0 2.4905-0.16642 4.9916 1.3376 7.2043 0.63049 0.9276 1.4137 1.7144 2.3707 2.3746 0.53018 0.36575 1.2734 0.56202 1.2979 1.2276-1.7431-0.0044-3.5259-0.61195-5.0988-1.2449-0.43942-0.17683-1.4092-0.44441-1.6128-0.86719-0.24947-0.5183-0.05591-1.4316-0.05591-1.9927v-4.5236c0-0.47389-0.23853-1.6628 0.0953-2.0438 0.26088-0.29764 1.2829-0.13428 1.6661-0.13428m12.052 10.89c0 1.0848 0.0779 1.8352 1.1125 2.5131v0.16754l-2.7812 2.2379-1.1125 0.79858-1.1125-0.66707-2.9666-2.537c1.1491-0.53899 1.1125-1.4895 1.1125-2.5131l2.1322 0.3318 3.6155-0.3318m-8.9925 2.7903c0.56439-0.0442 0.90953 0.38786 1.2979 0.69254 0.91362 0.71665 1.8012 1.4631 2.6885 2.2061 0.28701 0.24033 1.0006 0.61287 1.0006 1.0126 0 0.51109-1.1167 1.0071-1.4082 1.4242-0.32512 0.46543-0.1486 1.3113-0.1486 1.843v3.1833c0 0.34639 0.12774 0.91528-0.3763 0.99286-0.87579 0.13487-1.8869 0.01237-2.7757 0.01237h-5.5623c-0.52481 0-2.3452 0.25441-2.6859-0.13429-0.17985-0.20515-0.0953-0.62719-0.0953-0.87097 0-0.76138 0.02698-1.5044 0.08436-2.2618 0.29425-3.8782 3.391-7.7404 7.981-8.0999m20.303 11.283h-15.667v-3.8535c0-0.45471-0.1487-1.1735 0.09532-1.5841 0.27794-0.46794 0.957-0.84281 1.388-1.1946 0.99214-0.80972 1.9637-1.6401 2.9666-2.439 0.70715-0.56344 2.0034-2.1437 2.9666-2.218 0.87765-0.06779 1.993 0.38124 2.7812 0.686 2.8187 1.0902 4.8538 3.623 5.3363 6.3308 0.24949 1.4004 0.13332 2.8577 0.13332 4.2723m-23.64-9.1565c-0.746 0.16678-1.7201 1.0848-2.0264 1.7009-0.23566 0.47406 0.14425 0.94092 0.72506 0.80102 0.56179-0.13537 1.6571-1.1958 1.9337-1.653 0.25458-0.4207-0.06848-0.97502-0.63235-0.84894m14.282 3.606c-0.53094 0.1982-0.54494 0.8667-9e-4 1.0601 0.76473 0.27183 2.0506 0.05051 2.8698 0.05051 0.30769 0 0.72941 0.06192 1.006-0.08613 0.47261-0.25281 0.30545-0.90438-0.17578-1.0436-0.76704-0.22198-2.9545-0.25877-3.699 0.01912z" stroke-width=".9024"/>
<g transform="matrix(.10184 0 0 .095109 43.548 13.365)" stroke-width="9.169">
<path d="m241.77 342.55c1.25 60.582 76.849 91.634 128 91.995 10.513 0.075 21.689-1.382 32-3.444 5.645-1.129 12.227-4.117 18-3.491 16.044 1.741 33.681 10.834 49 15.94 5.054 1.685 14.435 6.502 19.566 2.972 4.641-3.192 1.424-10.902 0.104-14.972-3.003-9.258-5.836-18.647-8.529-28-0.982-3.412-3.462-8.122-2.872-11.715 0.91-5.549 8.44-12.252 11.303-17.285 5.891-10.356 9.865-23.056 10.389-35 3.119-71.115-70.043-107-131.96-107 0.7-16.301 0.998-31.139-4.029-47-28.324-89.371-147.44-111.94-225.97-85.667-42.625 14.261-83.737 46.404-95.105 91.667-6.3978 25.473-2.6266 52.758 9.3634 76 4.2278 8.195 12.89 15.593 15.982 24 1.6586 4.509-1.8497 10.659-3.0995 15-3.6621 12.718-7.7094 25.416-11.811 38-1.8639 5.719-6.9312 17.207 2.6852 18.757 7.6627 1.235 17.823-4.37 24.985-6.757 19.108-6.369 39.159-15.594 59-19.15 10.885-1.95 26.786 5.47 38 6.865 21.813 2.714 43.32 1.027 65-1.715m111-110c-50.069 3.957-110.85 40.219-112 96-21.513 2.733-42.343 4.471-64 1.845-11.675-1.416-25.507-8.456-37-7.62-25.006 1.816-48.231 19.117-73 22.775 1.9909-13.531 7.7405-26.888 11.576-40 1.4041-4.8 4.6159-10.942 4.1026-16-0.5233-5.158-5.8182-9.189-8.8703-13-5.5699-6.955-10.38-14.76-13.796-23-16.797-40.506-2.6725-82.334 28.988-110.83 50.791-45.712 136.14-51.273 196-21.418 31.849 15.886 58.903 41.595 67.113 77.247 2.629 11.417 1.797 22.476 0.887 34m121 197c-17.405-4.026-36.15-16.294-54-16.867-11.278-0.361-23.452 5.986-35 6.777-37.936 2.601-79.183-6.271-106.91-34-40.008-40.007-22.215-97.313 23.91-123.05 51.413-28.685 131.62-22.581 168.62 27.138 16.035 21.548 19.313 49.619 7.594 74-3.748 7.798-14.226 15.907-15.858 24-2.233 11.076 8.219 31.294 11.642 42"/>
<path d="m133.9 171.28h140.66" stroke-linecap="round"/>
<path d="m99.114 214.88h194.49" stroke-linecap="round"/>
<path d="m119.24 256.76h121.76" stroke-linecap="round"/>
</g>
<path d="m39.513 82.218v-3.4887c0-0.60858 0.04819-1.1761-0.69852-1.5732-1.0162-0.54042-3.1549-0.23574-4.3562-0.23574v-4.0701c0-1.0582-0.04064-2.096 0.90454-2.9718 1.6628-1.5408 4.8681-1.8788 7.2005-2.6488 0.33362 0.77455 1.4775 1.3613 2.4402 1.6772 2.1637 0.70982 4.8136 0.67513 6.8849-0.20144 0.77407-0.32755 1.6369-0.82462 1.9173-1.4758 2.2684 0.74891 5.2162 1.0812 6.9683 2.455 0.6369 0.4994 1.0638 1.1845 1.1289 1.8736 0.03469 0.3667-0.15469 1.019 0.44839 1.1882 1.0537 0.2957 0.90715-1.0443 0.82942-1.4466-0.24289-1.2568-1.1245-2.3585-2.5772-3.0559-1.8661-0.89588-4.2992-1.3311-6.362-1.9318-0.53702-0.15641-1.9676-0.35901-2.2134-0.77598-0.53563-0.9088 0.47253-1.4904 1.1012-2.1182 0.60892-0.60794 1.0309-1.3754 1.1121-2.132 1.5776-0.15822 2.797-1.1125 2.5985-2.3258-0.07015-0.4282-0.51027-0.74968-0.58243-1.1629-0.10781-0.61814 0.04819-1.2528-0.06179-1.8736-0.21004-1.1861-0.47559-2.2135-1.4092-3.2303-2.1932-2.3882-6.724-3.2775-10.219-1.9853-2.2997 0.85031-4.024 2.4756-4.4207 4.3757-0.1845 0.8834-0.01838 1.7637-0.11617 2.6488-0.1038 0.93981-1.1083 1.4378-0.35183 2.455 0.53502 0.71945 1.4094 0.6969 2.1493 1.1535 0.37771 0.2331 0.41832 0.90415 0.62879 1.2369 0.62539 0.98892 2.3591 1.7009 1.9086 2.9005-0.18781 0.50024-2.153 0.81344-2.7611 0.98807-2.3979 0.68856-5.5168 1.1708-7.2064 2.7015-1.4111 1.2784-1.2472 2.8455-1.2472 4.3929 0 2.7558-0.04532 5.5139 3.9e-4 8.2695 0.01103 0.66764 0.53453 1.2571 1.4812 1.3448 2.9243 0.27082 6.1146 0.01196 9.0637 0.01196 0.87125 0 1.7434 0.0088 2.6145-2.02e-4 0.35767-0.0035 0.76126-0.03901 0.90567-0.32561 0.36211-0.71879-1.0766-0.64321-1.6029-0.64321h-6.1006m15.426-24.938c-0.63115-0.02592-0.59175-0.31618-0.92014-0.64606-0.50487-0.50717-1.6499-1.6733-2.5659-1.7111-0.93382-0.03851-2.3299 0.82116-3.2246 1.0773-1.0377 0.29704-2.1993 0.50692-3.3117 0.56345-0.64962 0.03299-1.3678-0.07721-2.0045 0.03125-0.68108 0.11603-0.86079 0.66621-1.5687 0.74981 0-1.288-0.06937-2.5214 0.82166-3.6825 2.3938-3.1194 8.3215-3.4351 11.339-0.64605 1.3454 1.2436 1.4349 2.7445 1.4349 4.264m-11.765 0.25842c1.9865 0 3.8949-0.1858 5.752-0.7365 0.5542-0.16429 1.9769-0.93883 2.5274-0.79843 1.7669 0.45066 1.5687 2.0218 1.5687 3.0855 0 1.7078 0.10397 3.3339-1.9177 4.4899-2.7445 1.5693-7.424 0.37594-7.8282-2.2933-0.18755-1.2386-0.10223-2.5014-0.10223-3.7471m11.242 0.64605c1.36 0.59747 1.5477 1.651-0.08715 2.132l0.08715-2.132m-12.463 0.06461v2.0028c-1.7607-0.14174-1.5333-1.7155 0-2.0028m8.7151 6.6544c0 0.30054 0.09526 0.70407-0.1397 0.96649-0.88876 0.99247-3.7994 0.99247-4.6882 0-0.23496-0.26242-0.1397-0.66595-0.1397-0.96649 1.0631 0.18231 2.0256 0.39441 3.1374 0.31198 0.62993-0.04665 1.2098-0.24408 1.8302-0.31198m1.9173 1.9382c-0.82244 1.838-4.9507 1.8498-6.8849 1.2357-0.78375-0.2488-1.6441-0.60154-1.9173-1.2357 0.32228-0.06532 0.70792-0.24828 1.0458-0.22457 0.44264 0.03102 0.84022 0.39946 1.2201 0.5538 0.71342 0.28975 1.5493 0.39506 2.3531 0.38046 0.68483-0.01238 1.4062-0.17405 2.0045-0.41994 0.35174-0.14452 0.72405-0.48331 1.133-0.51413 0.33631-0.02534 0.72492 0.15931 1.0458 0.22437m9.3252 10.078c-1.1996 0-3.3424-0.30526-4.3562 0.23574-0.72501 0.38686-0.69851 0.9802-0.69851 1.5732v3.4887h-5.9263c-0.54748 0-1.7551-0.15286-1.8121 0.45243-0.07468 0.7931 2.2924 0.51665 2.9451 0.51665h6.9721c0.9435 0 2.2533 0.17217 3.1374-0.09581 0.8953-0.27134 1.0457-0.88161 1.0458-1.5193v-6.2667c0-0.31456 0.12619-0.81603-0.22424-1.0526-0.4212-0.28439-0.97409-0.01784-1.0632 0.34202-0.1804 0.72933-0.01987 1.584-0.01987 2.3257m-23.705 5.2976h-2.5274c-0.29536 0-0.75935 0.06164-1.0181-0.06642-0.36249-0.17928-0.20202-0.8179-0.20202-1.0965v-3.1657h2.5274c0.29536 0 0.75935-0.06164 1.0181 0.06641 0.36246 0.17928 0.20202 0.81791 0.20202 1.0965v3.1657m23.705-4.3286v3.1657c0 0.27858 0.16045 0.9172-0.20202 1.0965-0.25875 0.12798-0.72274 0.06642-1.0181 0.06642h-2.5275v-3.1657c0-0.27858-0.16045-0.9172 0.20202-1.0965 0.25875-0.12805 0.72274-0.06641 1.0181-0.06641z" stroke-width=".9024"/>
</g>
</g>
</g>
</svg>

